<?xml version="1.0" standalone="no"?>
<!DOCTYPE svg PUBLIC "-//W3C//DTD SVG 20010904//EN"
 "http://www.w3.org/TR/2001/REC-SVG-20010904/DTD/svg10.dtd">
<svg version="1.0" xmlns="http://www.w3.org/2000/svg"
 width="1246.000000pt" height="1280.000000pt" viewBox="0 0 1246.000000 1280.000000"
 preserveAspectRatio="xMidYMid meet">
<metadata>
Created by potrace 1.15, written by Peter Selinger 2001-2017
</metadata>
<g transform="translate(0.000000,1280.000000) scale(0.100000,-0.100000)"
fill="#000000" stroke="none">
<path d="M8145 12763 c-71 -20 -132 -37 -134 -39 -2 -2 36 -152 84 -334 49
-181 86 -332 83 -335 -6 -6 -181 -55 -184 -52 -2 1 -42 151 -90 332 -48 182
-89 332 -90 334 -2 2 -66 -14 -144 -34 -115 -31 -140 -41 -135 -54 15 -51 174
-655 172 -657 -1 -1 -155 -43 -342 -92 -187 -50 -515 -138 -730 -196 -214 -57
-644 -173 -955 -256 -311 -83 -781 -209 -1045 -280 -891 -239 -2259 -606
-2418 -649 -59 -16 -109 -26 -111 -22 -3 4 -44 153 -91 332 -48 178 -89 326
-91 328 -1 2 -66 -13 -143 -34 l-139 -37 18 -67 c71 -257 161 -603 158 -605
-15 -12 -181 -47 -187 -40 -4 5 -43 142 -86 304 -43 162 -82 309 -87 326 l-8
31 -134 -36 c-74 -20 -137 -39 -140 -42 -4 -3 34 -156 82 -338 58 -216 85
-334 78 -336 -6 -2 -146 -40 -311 -84 -165 -44 -461 -123 -657 -175 -196 -53
-359 -96 -362 -96 -3 0 -6 -25 -6 -56 0 -39 29 -163 96 -412 53 -196 162 -607
244 -912 82 -305 235 -877 340 -1270 105 -393 249 -931 320 -1195 71 -264 215
-802 320 -1195 105 -393 268 -1001 361 -1350 94 -349 228 -851 299 -1115 71
-264 199 -743 285 -1065 86 -322 194 -724 240 -895 46 -171 88 -329 95 -352
l11 -43 53 0 c53 0 81 7 1396 360 311 83 714 191 895 240 182 49 582 156 890
239 308 82 745 199 970 260 226 60 631 169 900 241 270 72 639 171 820 220
182 49 551 148 820 220 270 72 672 180 895 240 223 60 626 168 895 240 989
265 1306 350 1311 350 2 0 4 25 4 56 0 40 -47 229 -171 692 -94 350 -228 853
-299 1117 -71 264 -181 676 -245 915 -196 733 -405 1514 -585 2185 -94 352
-238 890 -320 1195 -144 537 -365 1363 -686 2560 -84 316 -189 707 -231 867
-51 192 -82 293 -91 293 -12 0 -548 -142 -1116 -296 -132 -36 -242 -61 -246
-57 -4 4 -44 148 -89 318 -99 373 -91 345 -99 344 -4 0 -65 -17 -137 -36z
m2180 -3020 c3 -16 254 -953 557 -2083 302 -1130 598 -2236 657 -2456 l107
-402 -60 -17 c-34 -9 -243 -65 -466 -125 -223 -60 -634 -170 -915 -246 -280
-75 -520 -139 -532 -142 -13 -2 -23 -5 -23 -6 0 0 121 -451 269 -1001 232
-867 266 -1001 252 -1007 -17 -8 -127 -38 -1211 -328 -393 -105 -796 -213
-895 -240 -99 -27 -468 -126 -820 -220 -352 -94 -824 -221 -1050 -281 -225
-61 -592 -159 -815 -219 -223 -60 -693 -186 -1045 -280 -352 -94 -779 -209
-950 -255 -501 -135 -587 -157 -591 -152 -3 2 -24 78 -49 168 -24 90 -129 484
-233 874 -328 1224 -1440 5377 -1514 5653 -39 146 -67 267 -62 271 5 4 214 62
464 129 446 119 659 176 1800 482 311 83 747 200 970 260 414 111 805 216
1795 481 308 83 709 190 890 239 326 87 1006 270 1920 515 1019 273 1373 368
1450 390 44 12 83 23 86 24 4 0 10 -11 14 -26z m1603 -5993 c100 -371 198
-737 218 -813 20 -75 35 -139 33 -141 -2 -2 -242 -68 -534 -146 -291 -78 -660
-177 -820 -220 -159 -43 -291 -77 -293 -75 -2 1 268 473 600 1048 333 578 606
1041 609 1034 4 -7 88 -316 187 -687z"/>
</g>
</svg>
